<svg id="Layer_1" xmlns="http://www.w3.org/2000/svg" viewBox="0 0 564 107"><style>.st0{fill:#00703c}.st1{fill:#b4d88b}</style><path class="st0" d="M345.2 14l-3.1 14.5h-17.9l3.1-14.5h17.9zM540 93.9h-17.4l17.6-80.8h17.6L540 93.9zM341 33.8s-8.6 40.4-13.1 60.2h-17.6c3.8-20 13.1-60.2 13.1-60.2H341zm39.9 12.8c5.5 2.6 3.1 12.6 1.7 18.5-1.4 6.4-4.5 15.9-12.4 16.4-4.3.2-10 1-12.4-3.8-2.4-7.6 1.2-19.5 4.5-26.2 3.4-6.3 13.4-7 18.6-4.9zm3.6-14C369.8 31.1 354 34 346.4 48c-6 11.2-10.7 25.9-4.8 38.8 2.6 5 7.9 6.9 12.9 8.1 12.9 2.1 27.4 1.4 36.9-10.2 8.1-11.2 13.6-28.1 9.5-40.9-2.3-7.4-9.7-10.5-16.4-11.2zM222.2 13.1l-17.6 80.8H186l-19.8-49.2-10.7 49.2h-18.8l17.6-80.8h19.5l18.6 48.7 10.7-48.7h19.1zm31.6 52.5c-6.4 2.4-18.1.2-22.1 8.1-1 2.1-1 4.8.7 6.7 3.3 3.6 8.8 2.1 13.1-.2 5.2-2.9 7.6-8.6 8.3-14.3v-.3zm-16.6 28.3c-21.4 3.1-22.9-8.6-23.1-12.8-.2-4.3 1.4-13.1 9-18.5 7.6-5.5 19.8-3.6 29.8-6.4 2.9-.7 4.8-5.9 2.4-8.8-2.1-2.6-9.8-2.4-12.9-.7-2.4 1.2-3.1 3.8-4 6.2h-15.9c1-7.4 5-14 12.6-17.4 7.6-3.1 21.9-3.3 28.3-1.4 6.4 1.9 8.3 4.3 9.8 7.4 1.4 3.3.7 8.1-.2 11.7l-5.5 26.2s.2 1.7 4.5 1.4c-.7 2.9-2.1 9.3-2.6 11.9-6 1.4-15.5 3.8-18.3-3.6-.5-1.4-.5-1.2-.5-1.2s-4.1 4.6-13.4 6zm264.7-28.3c-6.4 2.4-18.1.2-22.1 8.1-1 2.1-1 4.8.7 6.7 3.3 3.6 8.8 2.1 13.1-.2 5.2-2.9 7.6-8.6 8.3-14.3v-.3zm-16.7 28.3c-21.4 3.1-22.9-8.6-23.1-12.8-.2-4.3 1.4-13.1 9-18.5 7.6-5.5 19.8-3.6 29.8-6.4 2.9-.7 4.8-5.9 2.4-8.8-2.1-2.6-9.8-2.4-12.9-.7-2.4 1.2-3.1 3.8-4 6.2h-15.9c1-7.4 5-14 12.6-17.4 7.6-3.1 21.9-3.3 28.3-1.4 6.4 1.9 8.3 4.3 9.8 7.4 1.4 3.3.7 8.1-.2 11.7l-5.5 26.2s.2 1.7 4.5 1.4c-.7 2.9-2.1 9.3-2.6 11.9-6 1.4-15.5 3.8-18.3-3.6-.5-1.4-.5-1.2-.5-1.2s-4.3 4.6-13.4 6zM298.6 81.1c-1.7 0-2.1-1.2-1.7-2.4l7.1-32.6h9l2.6-12.1h-9l3.6-16.9h-18.6L288.1 34h-6.9l-2.6 12.1h6.7l-7.1 32.8c-.7 3.3-1.2 7.4 0 10.7 1.2 2.9 2.9 4.8 6.7 4.8h19.3l3.1-13.1-8.7-.2zm162.6-44c-2.1-2.9-4.8-3.6-6.7-4.3-2.1-.7-18.3-3.1-24.8 7.1v-6.4c-4 .2-14.5 0-16.7 0-.5 2.6-12.4 57.5-13.1 60.2h17.9l8.6-40.2s1.4-7.1 9.5-8.3c0 0 1.2-.2 2.9 0 2.9.2 6.2 1.9 5.2 6.9l-8.6 41.8h17.9l8.3-41.8c.5 0 3.1-10.7-.4-15z"/><path class="st1" d="M18.2 106c-3.6-.2-13.6 3.1-17.4-5.5-1.9-5.5-.2-10 3.1-12.6 4-3.3 9.8-4.8 18.3-1.4l-4 19.5zM9.1 59.9c0 .2 14-14.5 52.8 16.6 30 24.3 47.8 11.9 47.8 11.7l-3.3 15S92.1 118.4 53.8 88C22 62.8 5.8 74.4 5.8 74.4s3.3-15.2 3.3-14.5zm6.2-28.5c0 .2 14-14.5 52.8 16.6 30 24.3 47.8 11.9 47.8 11.7l-3.3 15S98.3 89.9 60 59.5C28.4 34.2 12 45.9 12 45.9s3.3-15.2 3.3-14.5zm6.2-28.1S24.8 0 32.7 0C41 0 54.4 3.8 74.4 20c30 24.3 47.8 11.9 47.8 11.7l-3.3 15s-14.3 15.2-52.6-15.2C34.6 6.2 18.4 17.8 18.4 17.8s3.1-15.2 3.1-14.5zm87.8-.9c3.6.2 13.6-3.1 17.4 5.5 1.9 5.5.2 10-3.1 12.6-4 3.3-9.8 4.8-18.3 1.4l4-19.5z"/><path class="st0" d="M557.6 86.3c1 0 1.4-.2 1.4-1.2s-1.2-1-1.9-1h-1.7v2.1l2.2.1zm2.6 4.5h-1.9l-1.7-3.3h-1.2v3.3h-1.7v-7.6h3.6c1.9 0 2.9.5 2.9 2.4 0 1.4-.7 1.9-2.1 2.1l2.1 3.1zm1.7-3.8c0-3.1-2.1-5.5-5.2-5.5s-5.2 2.1-5.2 5.5c0 3.1 2.1 5.2 5.2 5.2 3 .1 5.2-2.1 5.2-5.2zm-12.2 0c0-3.8 3.1-7.1 7.1-7.1 3.8 0 7.1 3.1 7.1 7.1 0 3.8-3.1 7.1-7.1 7.1-4-.2-7.1-3.3-7.1-7.1z"/></svg>